STARTFONT 2.1
FONT -FontForge-VCR OSD Mono-Book-R-Normal--24-240-75-75-P-108-ISO10646-1
SIZE 24 75 75
FONTBOUNDINGBOX 16 23 0 -1
COMMENT "Generated by fontforge, http://fontforge.sourceforge.net"
STARTPROPERTIES 39
FOUNDRY "FontForge"
FAMILY_NAME "VCR OSD Mono"
WEIGHT_NAME "Book"
SLANT "R"
SETWIDTH_NAME "Normal"
ADD_STYLE_NAME ""
PIXEL_SIZE 24
POINT_SIZE 240
RESOLUTION_X 75
RESOLUTION_Y 75
SPACING "P"
AVERAGE_WIDTH 108
CHARSET_REGISTRY "ISO10646"
CHARSET_ENCODING "1"
FONTNAME_REGISTRY ""
CHARSET_COLLECTIONS "ISO10646-1"
FONT_NAME "VCROSDMono"
FACE_NAME "VCR OSD Mono"
FONT_VERSION "1.001 March 31, 2015"
FONT_ASCENT 19
FONT_DESCENT 5
UNDERLINE_POSITION -3
UNDERLINE_THICKNESS 2
X_HEIGHT 14
CAP_HEIGHT 17
DEFAULT_CHAR 1
RAW_ASCENT 799
RAW_DESCENT 200
NORM_SPACE 7
RELATIVE_WEIGHT 40
RELATIVE_SETWIDTH 50
SUPERSCRIPT_X 0
SUPERSCRIPT_Y 10
SUPERSCRIPT_SIZE 15
SUBSCRIPT_X 0
SUBSCRIPT_Y 3
SUBSCRIPT_SIZE 15
AVG_LOWERCASE_WIDTH 111
AVG_UPPERCASE_WIDTH 110
ENDPROPERTIES
CHARS 209
STARTCHAR NULL.dup1
ENCODING 0
SWIDTH 0 0
DWIDTH 0 0
BBX 1 1 0 0
BITMAP
00
ENDCHAR
STARTCHAR NULL
ENCODING 29
SWIDTH 0 0
DWIDTH 0 0
BBX 1 1 0 0
BITMAP
00
ENDCHAR
STARTCHAR space
ENCODING 32
SWIDTH 292 0
DWIDTH 7 0
BBX 1 1 0 0
BITMAP
00
ENDCHAR
STARTCHAR exclam
ENCODING 33
SWIDTH 292 0
DWIDTH 7 0
BBX 2 18 3 0
BITMAP
C0
C0
C0
C0
C0
C0
C0
C0
C0
C0
C0
C0
C0
C0
00
00
C0
C0
ENDCHAR
STARTCHAR quotedbl
ENCODING 34
SWIDTH 292 0
DWIDTH 7 0
BBX 5 6 1 12
BITMAP
D8
D8
D8
D8
90
90
ENDCHAR
STARTCHAR numbersign
ENCODING 35
SWIDTH 292 0
DWIDTH 7 0
BBX 5 17 1 1
BITMAP
18
D8
D8
D8
F8
F8
D8
D8
D8
D8
D8
F8
F8
D8
D8
D8
C0
ENDCHAR
STARTCHAR dollar
ENCODING 36
SWIDTH 292 0
DWIDTH 8 0
BBX 7 18 0 0
BITMAP
18
38
38
FC
DE
DE
DE
D8
78
3C
1E
1E
DE
DE
DE
7C
38
18
ENDCHAR
STARTCHAR percent
ENCODING 37
SWIDTH 292 0
DWIDTH 8 0
BBX 7 18 0 0
BITMAP
66
F6
F6
F6
F2
FC
FC
1C
10
30
3C
6E
CE
CE
CE
CE
CE
CC
ENDCHAR
STARTCHAR ampersand
ENCODING 38
SWIDTH 292 0
DWIDTH 7 0
BBX 8 20 0 0
BITMAP
10
38
6C
6C
6C
6C
6C
6C
38
38
30
70
F0
DB
DF
CC
CC
EC
7F
3B
ENDCHAR
STARTCHAR quotesingle
ENCODING 39
SWIDTH 292 0
DWIDTH 7 0
BBX 2 6 3 12
BITMAP
C0
C0
C0
C0
80
80
ENDCHAR
STARTCHAR parenleft
ENCODING 40
SWIDTH 292 0
DWIDTH 7 0
BBX 5 23 2 -1
BITMAP
18
18
30
30
60
C0
C0
C0
C0
C0
C0
C0
C0
C0
C0
C0
C0
C0
C0
60
30
30
18
ENDCHAR
STARTCHAR parenright
ENCODING 41
SWIDTH 292 0
DWIDTH 7 0
BBX 5 23 2 -1
BITMAP
C0
C0
60
60
30
18
18
18
18
18
18
18
18
18
18
18
18
18
18
30
60
60
C0
ENDCHAR
STARTCHAR asterisk
ENCODING 42
SWIDTH 292 0
DWIDTH 7 0
BBX 5 13 1 7
BITMAP
30
30
B8
F8
F8
20
20
20
70
F8
B8
30
30
ENDCHAR
STARTCHAR plus
ENCODING 43
SWIDTH 292 0
DWIDTH 7 0
BBX 6 13 1 2
BITMAP
30
30
30
30
30
FC
FC
30
30
30
30
30
30
ENDCHAR
STARTCHAR comma
ENCODING 44
SWIDTH 292 0
DWIDTH 7 0
BBX 3 5 2 1
BITMAP
60
60
40
C0
80
ENDCHAR
STARTCHAR hyphen
ENCODING 45
SWIDTH 292 0
DWIDTH 7 0
BBX 5 2 1 8
BITMAP
F8
F8
ENDCHAR
STARTCHAR period
ENCODING 46
SWIDTH 146 0
DWIDTH 4 0
BBX 2 2 1 1
BITMAP
C0
C0
ENDCHAR
STARTCHAR slash
ENCODING 47
SWIDTH 292 0
DWIDTH 8 0
BBX 6 18 1 0
BITMAP
0C
0C
0C
0C
0C
18
10
10
10
20
20
20
60
C0
C0
C0
C0
C0
ENDCHAR
STARTCHAR zero
ENCODING 48
SWIDTH 292 0
DWIDTH 8 0
BBX 7 18 0 0
BITMAP
38
7C
C6
C6
C6
CE
CE
DE
D6
D6
F6
E6
E6
C6
C6
C6
7C
38
ENDCHAR
STARTCHAR one
ENCODING 49
SWIDTH 292 0
DWIDTH 7 0
BBX 3 18 2 0
BITMAP
C0
C0
C0
C0
C0
C0
C0
C0
C0
C0
C0
C0
C0
C0
C0
C0
E0
E0
ENDCHAR
STARTCHAR two
ENCODING 50
SWIDTH 292 0
DWIDTH 8 0
BBX 7 18 0 0
BITMAP
38
7C
F6
C6
C6
06
06
06
3C
78
C0
C0
C0
C0
C0
C0
FE
FE
ENDCHAR
STARTCHAR three
ENCODING 51
SWIDTH 292 0
DWIDTH 8 0
BBX 7 18 0 0
BITMAP
38
7C
F6
C6
C6
06
06
06
1C
1C
06
06
06
C6
C6
C6
7C
38
ENDCHAR
STARTCHAR four
ENCODING 52
SWIDTH 292 0
DWIDTH 7 0
BBX 7 18 0 0
BITMAP
0C
0C
1C
1C
2C
2C
6C
4C
CC
CC
FE
FE
0C
0C
0C
0C
0C
0C
ENDCHAR
STARTCHAR five
ENCODING 53
SWIDTH 292 0
DWIDTH 8 0
BBX 7 18 0 0
BITMAP
FE
FE
C0
C0
C0
F8
FC
06
06
06
06
06
06
C6
E6
E6
7C
38
ENDCHAR
STARTCHAR six
ENCODING 54
SWIDTH 292 0
DWIDTH 8 0
BBX 7 18 0 0
BITMAP
38
7C
C6
C6
C6
C0
C0
C0
F8
FC
C6
C6
C6
C6
C6
C6
7C
38
ENDCHAR
STARTCHAR seven
ENCODING 55
SWIDTH 292 0
DWIDTH 8 0
BBX 7 18 0 0
BITMAP
FE
FE
06
06
06
06
04
0C
08
18
18
18
18
18
18
18
18
18
ENDCHAR
STARTCHAR eight
ENCODING 56
SWIDTH 292 0
DWIDTH 8 0
BBX 7 18 0 0
BITMAP
38
3C
C6
C6
C6
C6
C6
C6
C6
7C
DE
C6
C6
C6
C6
C6
7C
38
ENDCHAR
STARTCHAR nine
ENCODING 57
SWIDTH 292 0
DWIDTH 8 0
BBX 7 18 0 0
BITMAP
38
7C
C6
C6
C6
C6
C6
C6
7E
3E
06
06
06
C6
C6
F6
7C
38
ENDCHAR
STARTCHAR colon
ENCODING 58
SWIDTH 146 0
DWIDTH 4 0
BBX 2 12 1 3
BITMAP
C0
C0
00
00
00
00
00
00
00
00
C0
C0
ENDCHAR
STARTCHAR semicolon
ENCODING 59
SWIDTH 146 0
DWIDTH 4 0
BBX 3 15 0 0
BITMAP
60
60
00
00
00
00
00
00
00
60
60
60
C0
C0
80
ENDCHAR
STARTCHAR less
ENCODING 60
SWIDTH 292 0
DWIDTH 7 0
BBX 5 22 1 -1
BITMAP
08
08
08
18
18
18
30
60
60
60
C0
80
80
C0
60
60
60
30
18
18
18
08
ENDCHAR
STARTCHAR equal
ENCODING 61
SWIDTH 292 0
DWIDTH 7 0
BBX 5 7 1 6
BITMAP
F8
F8
00
00
00
F8
F8
ENDCHAR
STARTCHAR greater
ENCODING 62
SWIDTH 292 0
DWIDTH 7 0
BBX 6 22 1 -1
BITMAP
C0
C0
C0
C0
60
60
30
30
30
18
0C
0C
0C
0C
18
30
30
30
60
C0
C0
C0
ENDCHAR
STARTCHAR question
ENCODING 63
SWIDTH 292 0
DWIDTH 8 0
BBX 6 18 1 0
BITMAP
70
F8
EC
CC
8C
0C
0C
0C
08
08
10
30
30
30
00
00
30
30
ENDCHAR
STARTCHAR at
ENCODING 64
SWIDTH 292 0
DWIDTH 8 0
BBX 7 16 0 1
BITMAP
38
78
86
C6
FA
FA
FA
FA
FA
FE
9E
9E
66
66
38
78
ENDCHAR
STARTCHAR A
ENCODING 65
SWIDTH 292 0
DWIDTH 8 0
BBX 6 18 1 0
BITMAP
30
30
30
30
CC
CC
CC
CC
CC
CC
FC
FC
CC
CC
CC
CC
CC
CC
ENDCHAR
STARTCHAR B
ENCODING 66
SWIDTH 292 0
DWIDTH 8 0
BBX 7 18 0 0
BITMAP
F8
FC
C6
C6
C6
C6
C6
C6
FC
FC
C6
C6
C6
C6
C6
C6
FC
F8
ENDCHAR
STARTCHAR C
ENCODING 67
SWIDTH 292 0
DWIDTH 8 0
BBX 7 18 0 0
BITMAP
38
7C
C6
C6
C6
C0
C0
C0
C0
C0
C0
C0
C0
C6
C6
C6
7C
38
ENDCHAR
STARTCHAR D
ENCODING 68
SWIDTH 292 0
DWIDTH 8 0
BBX 7 18 0 0
BITMAP
F8
FC
C6
C6
C6
C6
C6
C6
C6
C6
C6
C6
C6
C6
C6
C6
FC
F8
ENDCHAR
STARTCHAR E
ENCODING 69
SWIDTH 292 0
DWIDTH 7 0
BBX 7 18 0 0
BITMAP
FE
FE
C0
C0
C0
C0
C0
C0
FC
FC
C0
C0
C0
C0
C0
C0
FE
FE
ENDCHAR
STARTCHAR F
ENCODING 70
SWIDTH 292 0
DWIDTH 7 0
BBX 7 18 0 0
BITMAP
FE
FE
C0
C0
C0
C0
C0
C0
FC
FC
C0
C0
C0
C0
C0
C0
C0
C0
ENDCHAR
STARTCHAR G
ENCODING 71
SWIDTH 292 0
DWIDTH 7 0
BBX 6 18 0 0
BITMAP
30
78
CC
CC
CC
C0
C0
C0
DC
DC
CC
CC
CC
CC
CC
CC
78
30
ENDCHAR
STARTCHAR H
ENCODING 72
SWIDTH 292 0
DWIDTH 8 0
BBX 6 18 1 0
BITMAP
CC
CC
CC
CC
CC
CC
CC
CC
FC
FC
CC
CC
CC
CC
CC
CC
CC
CC
ENDCHAR
STARTCHAR I
ENCODING 73
SWIDTH 292 0
DWIDTH 7 0
BBX 4 18 2 0
BITMAP
F0
F0
60
60
60
60
60
60
60
60
60
60
60
60
60
60
F0
F0
ENDCHAR
STARTCHAR J
ENCODING 74
SWIDTH 292 0
DWIDTH 7 0
BBX 7 18 0 0
BITMAP
1E
1E
0C
0C
0C
0C
0C
0C
0C
0C
0C
0C
0C
CC
DC
7C
78
30
ENDCHAR
STARTCHAR K
ENCODING 75
SWIDTH 292 0
DWIDTH 7 0
BBX 7 18 0 0
BITMAP
C6
C6
C6
CC
D8
D8
D8
F0
E0
E0
F0
D0
D8
D8
CC
C6
C6
C6
ENDCHAR
STARTCHAR L
ENCODING 76
SWIDTH 292 0
DWIDTH 7 0
BBX 7 18 0 0
BITMAP
C0
C0
C0
C0
C0
C0
C0
C0
C0
C0
C0
C0
C0
C0
C0
C0
FE
FE
ENDCHAR
STARTCHAR M
ENCODING 77
SWIDTH 292 0
DWIDTH 8 0
BBX 6 18 1 0
BITMAP
CC
CC
CC
CC
FC
FC
FC
EC
EC
EC
CC
CC
CC
CC
CC
CC
CC
CC
ENDCHAR
STARTCHAR N
ENCODING 78
SWIDTH 292 0
DWIDTH 8 0
BBX 6 18 1 0
BITMAP
CC
CC
CC
CC
CC
CC
EC
EC
EC
EC
DC
DC
CC
CC
CC
CC
CC
CC
ENDCHAR
STARTCHAR O
ENCODING 79
SWIDTH 292 0
DWIDTH 8 0
BBX 7 18 0 0
BITMAP
38
7C
C6
C6
C6
C6
C6
C6
C6
C6
C6
C6
C6
C6
C6
C6
7C
38
ENDCHAR
STARTCHAR P
ENCODING 80
SWIDTH 292 0
DWIDTH 8 0
BBX 7 18 0 0
BITMAP
F8
FC
C6
C6
C6
C6
C6
C6
FC
F8
C0
C0
C0
C0
C0
C0
C0
C0
ENDCHAR
STARTCHAR Q
ENCODING 81
SWIDTH 292 0
DWIDTH 8 0
BBX 7 18 0 0
BITMAP
38
7C
CE
CE
C6
C6
C6
C6
C6
C6
F6
FE
FE
DE
CC
CC
7E
36
ENDCHAR
STARTCHAR R
ENCODING 82
SWIDTH 292 0
DWIDTH 8 0
BBX 7 18 0 0
BITMAP
F8
FC
C6
C6
C6
C6
C6
C6
FC
F8
D0
D8
D8
C8
CC
C6
C6
C6
ENDCHAR
STARTCHAR S
ENCODING 83
SWIDTH 292 0
DWIDTH 8 0
BBX 7 18 0 0
BITMAP
38
7C
C6
C6
C6
C0
C0
C0
78
3C
06
06
06
C6
C6
C6
7C
38
ENDCHAR
STARTCHAR T
ENCODING 84
SWIDTH 292 0
DWIDTH 7 0
BBX 6 18 1 0
BITMAP
FC
FC
30
30
30
30
30
30
30
30
30
30
30
30
30
30
30
30
ENDCHAR
STARTCHAR U
ENCODING 85
SWIDTH 292 0
DWIDTH 8 0
BBX 6 18 1 0
BITMAP
CC
CC
CC
CC
CC
CC
CC
CC
CC
CC
CC
CC
CC
CC
CC
CC
78
30
ENDCHAR
STARTCHAR V
ENCODING 86
SWIDTH 292 0
DWIDTH 8 0
BBX 6 18 1 0
BITMAP
CC
CC
CC
CC
CC
CC
CC
CC
CC
CC
CC
CC
CC
78
30
30
30
20
ENDCHAR
STARTCHAR W
ENCODING 87
SWIDTH 292 0
DWIDTH 8 0
BBX 6 18 1 0
BITMAP
CC
CC
CC
CC
CC
CC
CC
FC
FC
FC
FC
FC
FC
FC
FC
78
78
50
ENDCHAR
STARTCHAR X
ENCODING 88
SWIDTH 292 0
DWIDTH 8 0
BBX 7 18 0 0
BITMAP
46
C6
C6
E6
E6
C6
26
18
18
18
38
66
E6
C6
C6
C6
C6
C6
ENDCHAR
STARTCHAR Y
ENCODING 89
SWIDTH 292 0
DWIDTH 8 0
BBX 6 18 1 0
BITMAP
CC
CC
CC
CC
CC
CC
CC
48
70
30
30
30
30
30
30
30
30
30
ENDCHAR
STARTCHAR Z
ENCODING 90
SWIDTH 292 0
DWIDTH 7 0
BBX 5 18 1 0
BITMAP
F8
F8
08
08
08
18
18
30
30
60
60
E0
C0
80
80
80
F8
F8
ENDCHAR
STARTCHAR bracketleft
ENCODING 91
SWIDTH 292 0
DWIDTH 7 0
BBX 4 21 1 0
BITMAP
F0
F0
C0
C0
C0
C0
C0
C0
C0
C0
C0
C0
C0
C0
C0
C0
C0
C0
C0
F0
F0
ENDCHAR
STARTCHAR backslash
ENCODING 92
SWIDTH 292 0
DWIDTH 8 0
BBX 6 18 1 0
BITMAP
C0
C0
C0
C0
C0
60
20
20
20
10
10
10
18
0C
0C
0C
0C
0C
ENDCHAR
STARTCHAR bracketright
ENCODING 93
SWIDTH 292 0
DWIDTH 7 0
BBX 4 21 2 0
BITMAP
F0
F0
30
30
30
30
30
30
30
30
30
30
30
30
30
30
30
30
30
F0
F0
ENDCHAR
STARTCHAR asciicircum
ENCODING 94
SWIDTH 292 0
DWIDTH 7 0
BBX 5 7 1 11
BITMAP
20
70
70
70
D8
88
88
ENDCHAR
STARTCHAR underscore
ENCODING 95
SWIDTH 292 0
DWIDTH 7 0
BBX 7 2 0 0
BITMAP
FE
FE
ENDCHAR
STARTCHAR grave
ENCODING 96
SWIDTH 292 0
DWIDTH 7 0
BBX 3 4 2 14
BITMAP
C0
40
20
20
ENDCHAR
STARTCHAR a
ENCODING 97
SWIDTH 292 0
DWIDTH 7 0
BBX 7 15 0 0
BITMAP
38
3C
06
06
3E
3E
C6
C6
C6
C6
C6
C6
C6
3E
3E
ENDCHAR
STARTCHAR b
ENCODING 98
SWIDTH 292 0
DWIDTH 7 0
BBX 7 18 0 0
BITMAP
C0
C0
C0
D8
D8
F8
EC
E6
E6
C6
C6
C6
C6
E6
EC
F8
F8
D8
ENDCHAR
STARTCHAR c
ENCODING 99
SWIDTH 292 0
DWIDTH 8 0
BBX 7 15 0 0
BITMAP
38
7C
F6
C6
C6
C0
C0
C0
C0
C0
C6
C6
DE
7C
38
ENDCHAR
STARTCHAR d
ENCODING 100
SWIDTH 292 0
DWIDTH 7 0
BBX 6 18 0 0
BITMAP
0C
0C
0C
3C
3C
3C
7C
CC
CC
C4
C4
C4
C4
CC
7C
7C
3C
3C
ENDCHAR
STARTCHAR e
ENCODING 101
SWIDTH 292 0
DWIDTH 8 0
BBX 7 15 0 0
BITMAP
3C
7C
C6
C6
C2
C2
FC
FC
C0
C0
C0
C6
CE
3C
3C
ENDCHAR
STARTCHAR f
ENCODING 102
SWIDTH 292 0
DWIDTH 7 0
BBX 5 18 1 0
BITMAP
18
38
30
F8
F8
30
30
30
30
30
30
30
30
30
30
30
30
30
ENDCHAR
STARTCHAR g
ENCODING 103
SWIDTH 292 0
DWIDTH 8 0
BBX 7 15 0 0
BITMAP
FC
FC
C6
C6
C6
C6
FE
7E
06
06
06
C6
C6
78
78
ENDCHAR
STARTCHAR h
ENCODING 104
SWIDTH 292 0
DWIDTH 8 0
BBX 6 18 1 0
BITMAP
C0
C0
C0
D0
D0
F0
F8
EC
EC
CC
CC
CC
CC
CC
CC
CC
CC
CC
ENDCHAR
STARTCHAR i
ENCODING 105
SWIDTH 292 0
DWIDTH 7 0
BBX 3 18 2 0
BITMAP
C0
C0
00
00
00
00
C0
C0
C0
C0
C0
C0
C0
C0
E0
60
60
20
ENDCHAR
STARTCHAR j
ENCODING 106
SWIDTH 292 0
DWIDTH 7 0
BBX 4 20 2 0
BITMAP
30
30
00
00
00
00
70
70
30
30
30
30
30
30
30
30
30
70
E0
C0
ENDCHAR
STARTCHAR k
ENCODING 107
SWIDTH 292 0
DWIDTH 7 0
BBX 7 18 0 0
BITMAP
C0
C0
C0
C0
C6
CC
CC
CC
D8
D0
D0
F0
F0
F8
F8
CC
CC
C6
ENDCHAR
STARTCHAR l
ENCODING 108
SWIDTH 292 0
DWIDTH 7 0
BBX 2 18 3 0
BITMAP
C0
C0
C0
C0
C0
C0
C0
C0
C0
C0
C0
C0
C0
C0
C0
C0
C0
C0
ENDCHAR
STARTCHAR m
ENCODING 109
SWIDTH 292 0
DWIDTH 8 0
BBX 6 15 1 0
BITMAP
F0
F8
FC
FC
FC
FC
FC
FC
FC
FC
FC
FC
FC
FC
FC
ENDCHAR
STARTCHAR n
ENCODING 110
SWIDTH 292 0
DWIDTH 8 0
BBX 6 15 1 0
BITMAP
F0
F8
CC
CC
CC
CC
CC
CC
CC
CC
CC
CC
CC
CC
CC
ENDCHAR
STARTCHAR o
ENCODING 111
SWIDTH 292 0
DWIDTH 8 0
BBX 7 15 0 0
BITMAP
38
7C
C6
C6
C6
C6
C6
C6
C6
C6
C6
C6
C6
7C
38
ENDCHAR
STARTCHAR p
ENCODING 112
SWIDTH 292 0
DWIDTH 7 0
BBX 6 15 0 0
BITMAP
F8
FC
CC
CC
C4
C4
C4
CC
CC
FC
F8
C0
C0
C0
C0
ENDCHAR
STARTCHAR q
ENCODING 113
SWIDTH 292 0
DWIDTH 7 0
BBX 6 15 0 0
BITMAP
3C
7C
CC
CC
CC
CC
CC
CC
CC
3C
3C
0C
0C
0C
0C
ENDCHAR
STARTCHAR r
ENCODING 114
SWIDTH 292 0
DWIDTH 7 0
BBX 7 15 0 0
BITMAP
DC
DC
F4
F6
E2
E0
C0
C0
C0
C0
C0
C0
C0
C0
C0
ENDCHAR
STARTCHAR s
ENCODING 115
SWIDTH 292 0
DWIDTH 8 0
BBX 6 15 1 0
BITMAP
78
78
CC
CC
C4
68
70
B8
18
18
8C
CC
CC
78
78
ENDCHAR
STARTCHAR t
ENCODING 116
SWIDTH 292 0
DWIDTH 7 0
BBX 4 18 2 0
BITMAP
60
60
60
F0
F0
60
60
60
60
60
60
60
60
60
70
30
30
10
ENDCHAR
STARTCHAR u
ENCODING 117
SWIDTH 292 0
DWIDTH 8 0
BBX 6 15 1 0
BITMAP
CC
CC
CC
CC
CC
CC
CC
CC
CC
CC
CC
CC
CC
78
30
ENDCHAR
STARTCHAR v
ENCODING 118
SWIDTH 292 0
DWIDTH 8 0
BBX 6 15 1 0
BITMAP
CC
CC
CC
CC
CC
CC
CC
CC
CC
CC
78
30
30
30
20
ENDCHAR
STARTCHAR w
ENCODING 119
SWIDTH 292 0
DWIDTH 8 0
BBX 6 15 1 0
BITMAP
CC
CC
CC
CC
CC
CC
FC
FC
FC
FC
FC
FC
FC
78
50
ENDCHAR
STARTCHAR x
ENCODING 120
SWIDTH 292 0
DWIDTH 8 0
BBX 7 15 0 0
BITMAP
C6
E6
66
66
38
38
18
18
18
18
38
66
66
C6
C6
ENDCHAR
STARTCHAR y
ENCODING 121
SWIDTH 292 0
DWIDTH 8 0
BBX 7 15 0 0
BITMAP
C6
C6
C6
C6
C6
CE
EE
EE
7E
36
06
06
06
3C
38
ENDCHAR
STARTCHAR z
ENCODING 122
SWIDTH 292 0
DWIDTH 7 0
BBX 5 15 1 0
BITMAP
F8
F8
08
08
18
18
10
30
70
60
60
E0
C0
F8
F8
ENDCHAR
STARTCHAR braceleft
ENCODING 123
SWIDTH 292 0
DWIDTH 8 0
BBX 4 23 2 -1
BITMAP
30
30
30
30
60
60
60
60
60
60
C0
C0
60
60
60
60
60
60
60
70
30
30
30
ENDCHAR
STARTCHAR bar
ENCODING 124
SWIDTH 292 0
DWIDTH 7 0
BBX 2 23 3 -1
BITMAP
C0
C0
C0
C0
C0
C0
C0
C0
C0
C0
C0
C0
C0
C0
C0
C0
C0
C0
C0
C0
C0
C0
C0
ENDCHAR
STARTCHAR braceright
ENCODING 125
SWIDTH 292 0
DWIDTH 8 0
BBX 4 23 2 -1
BITMAP
C0
C0
C0
C0
60
60
60
60
60
60
30
30
60
60
60
60
60
60
60
E0
C0
C0
C0
ENDCHAR
STARTCHAR asciitilde
ENCODING 126
SWIDTH 292 0
DWIDTH 7 0
BBX 5 4 1 7
BITMAP
68
E8
B8
90
ENDCHAR
STARTCHAR space.dup2
ENCODING 160
SWIDTH 292 0
DWIDTH 7 0
BBX 1 1 0 0
BITMAP
00
ENDCHAR
STARTCHAR exclamdown
ENCODING 161
SWIDTH 585 0
DWIDTH 14 0
BBX 2 17 7 1
BITMAP
C0
C0
00
00
00
C0
C0
C0
C0
C0
C0
C0
C0
C0
C0
C0
C0
ENDCHAR
STARTCHAR cent
ENCODING 162
SWIDTH 585 0
DWIDTH 14 0
BBX 12 17 1 1
BITMAP
0600
0600
0600
3FC0
7FE0
F6F0
F6F0
C630
C600
C600
C630
F6F0
FFF0
7FE0
3FC0
0600
0600
ENDCHAR
STARTCHAR sterling
ENCODING 163
SWIDTH 585 0
DWIDTH 14 0
BBX 11 19 2 1
BITMAP
1FC0
1FC0
38E0
38E0
3000
3000
3000
FF80
FF80
3000
3000
3000
3000
3000
3000
3000
6000
FFE0
FFE0
ENDCHAR
STARTCHAR yen
ENCODING 165
SWIDTH 585 0
DWIDTH 14 0
BBX 9 17 3 1
BITMAP
C180
C180
C180
C180
6600
6600
3E00
3E00
3E00
FF80
FF80
1800
1800
FF80
FF80
1800
1800
ENDCHAR
STARTCHAR brokenbar
ENCODING 166
SWIDTH 585 0
DWIDTH 14 0
BBX 2 19 6 1
BITMAP
C0
C0
C0
C0
C0
C0
C0
C0
00
00
00
C0
C0
C0
C0
C0
C0
C0
C0
ENDCHAR
STARTCHAR dieresis
ENCODING 168
SWIDTH 585 0
DWIDTH 14 0
BBX 6 2 4 16
BITMAP
CC
CC
ENDCHAR
STARTCHAR copyright
ENCODING 169
SWIDTH 585 0
DWIDTH 14 0
BBX 12 13 1 4
BITMAP
3FC0
3FC0
C3F0
C3F0
CC10
CC10
CC10
CC10
CC10
C3F0
C3F0
3FC0
3FC0
ENDCHAR
STARTCHAR ordfeminine
ENCODING 170
SWIDTH 585 0
DWIDTH 14 0
BBX 8 13 2 5
BITMAP
7E
7E
C3
C3
7F
7F
C3
C3
7D
7D
00
FF
FF
ENDCHAR
STARTCHAR guillemotleft
ENCODING 171
SWIDTH 585 0
DWIDTH 13 0
BBX 11 10 2 4
BITMAP
0C60
18C0
3180
6300
C200
C600
6300
3180
18C0
0C60
ENDCHAR
STARTCHAR hyphen.dup3
ENCODING 173
SWIDTH 292 0
DWIDTH 7 0
BBX 5 2 1 8
BITMAP
F8
F8
ENDCHAR
STARTCHAR registered
ENCODING 174
SWIDTH 585 0
DWIDTH 14 0
BBX 12 12 1 6
BITMAP
3FC0
3FC0
C630
CE30
CE30
CD90
CE10
CF10
CDB0
CCB0
3FC0
3FC0
ENDCHAR
STARTCHAR degree
ENCODING 176
SWIDTH 585 0
DWIDTH 14 0
BBX 10 10 1 8
BITMAP
3E00
7F00
FB80
F380
C180
C1C0
F3C0
F3C0
7F80
3E00
ENDCHAR
STARTCHAR uni00B2
ENCODING 178
SWIDTH 585 0
DWIDTH 14 0
BBX 5 8 4 11
BITMAP
F8
D8
70
70
C0
C0
F8
F8
ENDCHAR
STARTCHAR uni00B3
ENCODING 179
SWIDTH 585 0
DWIDTH 14 0
BBX 5 8 4 12
BITMAP
F8
D8
18
38
38
18
D8
F8
ENDCHAR
STARTCHAR acute
ENCODING 180
SWIDTH 585 0
DWIDTH 14 0
BBX 6 4 5 14
BITMAP
3C
70
C0
C0
ENDCHAR
STARTCHAR uni00B9
ENCODING 185
SWIDTH 585 0
DWIDTH 14 0
BBX 5 9 4 11
BITMAP
30
F0
30
30
30
30
30
F8
F8
ENDCHAR
STARTCHAR ordmasculine
ENCODING 186
SWIDTH 585 0
DWIDTH 14 0
BBX 8 13 3 5
BITMAP
3C
7E
CF
C3
C3
C3
C3
C3
7E
3C
00
FF
FF
ENDCHAR
STARTCHAR guillemotright
ENCODING 187
SWIDTH 585 0
DWIDTH 14 0
BBX 12 10 1 4
BITMAP
C300
E380
30C0
38E0
2C30
0C30
1860
30C0
E380
C300
ENDCHAR
STARTCHAR onequarter
ENCODING 188
SWIDTH 585 0
DWIDTH 14 0
BBX 15 18 1 1
BITMAP
F03C
F03C
F030
F0F0
F0C0
F3C0
FF00
FF00
0300
0C00
3CFC
3CFC
30CC
C3FE
C3FE
C00C
800C
800C
ENDCHAR
STARTCHAR onehalf
ENCODING 189
SWIDTH 585 0
DWIDTH 14 0
BBX 14 19 1 1
BITMAP
F03C
F03C
F030
F0F0
F0F0
F0C0
F3C0
FF00
FF00
0300
0C00
3FFC
3FCC
300C
F0FC
F0FC
C3C0
83FC
83FC
ENDCHAR
STARTCHAR threequarters
ENCODING 190
SWIDTH 585 0
DWIDTH 14 0
BBX 14 19 1 1
BITMAP
FF0C
CF0C
0F0C
3C3C
3C3C
0F30
CEF0
CCF0
33C0
03C0
0300
0FFC
0EFC
0CCC
33FC
31FC
F00C
C00C
C00C
ENDCHAR
STARTCHAR questiondown
ENCODING 191
SWIDTH 585 0
DWIDTH 14 0
BBX 12 17 1 1
BITMAP
0600
0600
0000
0000
0000
0600
0E00
3C00
7800
F000
F000
C000
C030
F070
F070
7FE0
3FC0
ENDCHAR
STARTCHAR Agrave
ENCODING 192
SWIDTH 585 0
DWIDTH 14 0
BBX 12 19 1 1
BITMAP
3E00
0F00
0380
0000
0000
0700
0F80
3FC0
3FC0
78E0
F070
C030
C030
FFF0
FFF0
C030
C030
C030
C030
ENDCHAR
STARTCHAR Aacute
ENCODING 193
SWIDTH 585 0
DWIDTH 14 0
BBX 12 19 1 1
BITMAP
03C0
0780
0C00
0000
0000
0700
0F80
3FC0
3FC0
79E0
F070
C030
C030
FFF0
FFF0
C030
C030
C030
C030
ENDCHAR
STARTCHAR Acircumflex
ENCODING 194
SWIDTH 585 0
DWIDTH 14 0
BBX 10 19 1 1
BITMAP
0400
0C00
3380
3380
0040
0C00
0F80
3F00
3F00
7380
F840
C040
C0C0
FFC0
FFC0
C040
C040
C040
C0C0
ENDCHAR
STARTCHAR Atilde
ENCODING 195
SWIDTH 585 0
DWIDTH 14 0
BBX 13 19 1 1
BITMAP
0C40
3FE0
3380
0000
0000
0700
0F80
3FE0
3FC0
78E0
F078
C018
C018
FFF8
FFF8
C038
C038
C038
C018
ENDCHAR
STARTCHAR Adieresis
ENCODING 196
SWIDTH 585 0
DWIDTH 14 0
BBX 11 19 1 1
BITMAP
3180
3180
0040
0000
0000
0E00
1F00
3F80
3F80
71C0
E0E0
C060
C060
FFE0
FFE0
C060
C060
C060
C060
ENDCHAR
STARTCHAR Aring
ENCODING 197
SWIDTH 585 0
DWIDTH 14 0
BBX 12 19 1 1
BITMAP
0600
0600
1980
1980
0600
0600
1F80
3FC0
3FC0
79E0
E070
C030
C030
FFF0
FFF0
C030
C030
C030
C030
ENDCHAR
STARTCHAR AE
ENCODING 198
SWIDTH 585 0
DWIDTH 14 0
BBX 12 18 1 1
BITMAP
03F0
07F0
1F00
1F00
3F00
7B00
6300
C3F0
C3F0
C300
C300
FF00
FF00
C300
C300
C300
C3F0
C3F0
ENDCHAR
STARTCHAR Ccedilla
ENCODING 199
SWIDTH 585 0
DWIDTH 14 0
BBX 12 17 1 1
BITMAP
3FC0
7FE0
F0F0
F0F0
C030
C000
C000
C000
C030
C030
F0F0
7FE0
3FC0
3740
0E00
0E00
3C00
ENDCHAR
STARTCHAR Egrave
ENCODING 200
SWIDTH 585 0
DWIDTH 14 0
BBX 11 19 1 1
BITMAP
3C00
1E00
0300
0000
0000
FFE0
FFE0
C000
C000
C000
C000
FF80
FF80
C000
C000
C000
C000
FFE0
FFE0
ENDCHAR
STARTCHAR Eacute
ENCODING 201
SWIDTH 585 0
DWIDTH 14 0
BBX 11 19 1 1
BITMAP
03C0
0700
0C00
0000
0000
FFE0
FFE0
C000
C000
C000
C000
FF80
FF80
C000
C000
C000
C000
FFE0
FFE0
ENDCHAR
STARTCHAR Ecircumflex
ENCODING 202
SWIDTH 585 0
DWIDTH 14 0
BBX 11 19 1 1
BITMAP
0E00
0E00
3180
3180
0000
FFE0
FFE0
C000
C000
C000
C000
FF80
FF80
C000
C000
C000
C000
FFE0
FFE0
ENDCHAR
STARTCHAR Edieresis
ENCODING 203
SWIDTH 585 0
DWIDTH 14 0
BBX 11 19 1 1
BITMAP
3180
3180
0000
0000
0000
FFE0
FFE0
C000
C000
C000
C000
FF80
FF80
C000
C000
C000
C000
FFE0
FFE0
ENDCHAR
STARTCHAR Igrave
ENCODING 204
SWIDTH 585 0
DWIDTH 14 0
BBX 7 19 3 1
BITMAP
F0
78
0C
00
00
7E
7E
18
18
18
18
18
18
18
18
18
18
7E
7E
ENDCHAR
STARTCHAR Iacute
ENCODING 205
SWIDTH 585 0
DWIDTH 14 0
BBX 7 19 4 1
BITMAP
1E
3C
60
00
00
FC
FC
30
30
30
30
30
30
30
30
30
30
FC
FC
ENDCHAR
STARTCHAR Icircumflex
ENCODING 206
SWIDTH 585 0
DWIDTH 14 0
BBX 6 19 4 1
BITMAP
30
30
CC
CC
00
FC
FC
30
30
30
30
30
30
30
30
30
30
FC
FC
ENDCHAR
STARTCHAR Idieresis
ENCODING 207
SWIDTH 585 0
DWIDTH 14 0
BBX 6 19 4 1
BITMAP
CC
CC
00
00
00
FC
FC
30
30
30
30
30
30
30
30
30
30
FC
FC
ENDCHAR
STARTCHAR Eth
ENCODING 208
SWIDTH 585 0
DWIDTH 14 0
BBX 12 17 1 1
BITMAP
7FC0
7FE0
60F0
6030
6030
6030
6030
6030
FC30
FC30
6030
6030
6030
6030
60F0
7FE0
7FC0
ENDCHAR
STARTCHAR Ntilde
ENCODING 209
SWIDTH 585 0
DWIDTH 14 0
BBX 12 19 1 1
BITMAP
0CC0
3FC0
3300
0000
0000
C030
C030
F030
F030
F830
FC30
CE30
C730
C3F0
C1F0
C0F0
C0F0
C030
C030
ENDCHAR
STARTCHAR Ograve
ENCODING 210
SWIDTH 585 0
DWIDTH 14 0
BBX 12 19 1 1
BITMAP
3C00
0E00
0300
0000
0000
3FC0
7FE0
F0F0
F0F0
C030
C030
C030
C030
C030
C030
F0F0
F0F0
7FE0
3FC0
ENDCHAR
STARTCHAR Oacute
ENCODING 211
SWIDTH 585 0
DWIDTH 14 0
BBX 12 19 1 1
BITMAP
03C0
0700
0C00
0000
0000
3FC0
7FE0
F0F0
F0F0
C030
C030
C030
C030
C030
C030
F0F0
F0F0
7FE0
3FC0
ENDCHAR
STARTCHAR Ocircumflex
ENCODING 212
SWIDTH 585 0
DWIDTH 14 0
BBX 12 19 1 1
BITMAP
0600
0600
39C0
39C0
0000
3FC0
7FE0
F0F0
F0F0
C030
C030
C030
C030
C030
C030
F0F0
F0F0
7FE0
3FC0
ENDCHAR
STARTCHAR Otilde
ENCODING 213
SWIDTH 585 0
DWIDTH 14 0
BBX 12 19 1 1
BITMAP
0CC0
3FC0
3300
0000
0000
3FC0
7FE0
F0F0
F0F0
C030
C030
C030
C030
C030
C030
F0F0
F0F0
7FE0
3FC0
ENDCHAR
STARTCHAR Odieresis
ENCODING 214
SWIDTH 585 0
DWIDTH 14 0
BBX 12 19 1 1
BITMAP
3180
3180
0000
0000
0000
3F80
7FE0
F0F0
F0F0
C070
C070
C070
C070
C070
C070
F0F0
F0F0
7FE0
3F80
ENDCHAR
STARTCHAR Oslash
ENCODING 216
SWIDTH 585 0
DWIDTH 14 0
BBX 12 17 1 1
BITMAP
3F30
7FF0
F1E0
C1F0
C3F0
C3F0
C330
C730
C630
CE30
CC30
FC30
FC30
F830
78F0
FFE0
CFC0
ENDCHAR
STARTCHAR Ugrave
ENCODING 217
SWIDTH 585 0
DWIDTH 14 0
BBX 12 19 1 1
BITMAP
3C00
1E00
0300
0000
0000
C030
C030
C030
C030
C030
C030
C030
C030
C030
C030
E070
E070
7FE0
3FC0
ENDCHAR
STARTCHAR Uacute
ENCODING 218
SWIDTH 585 0
DWIDTH 14 0
BBX 12 19 1 1
BITMAP
03C0
0780
0C00
0000
0000
C030
C030
C030
C030
C030
C030
C030
C030
C030
C030
E070
E070
7FE0
3FC0
ENDCHAR
STARTCHAR Ucircumflex
ENCODING 219
SWIDTH 585 0
DWIDTH 14 0
BBX 12 19 1 1
BITMAP
0600
0600
39C0
39C0
0000
C030
C030
C030
C030
C030
C030
C030
C030
C030
C030
E070
E070
7FE0
3FC0
ENDCHAR
STARTCHAR Udieresis
ENCODING 220
SWIDTH 585 0
DWIDTH 14 0
BBX 11 19 1 1
BITMAP
3180
3180
0000
0000
0000
C060
C060
C060
C060
C060
C060
C060
C060
C060
C060
E0E0
E0E0
7FC0
3F80
ENDCHAR
STARTCHAR Yacute
ENCODING 221
SWIDTH 585 0
DWIDTH 14 0
BBX 12 19 1 1
BITMAP
03C0
0780
0E00
0000
0000
C030
C030
C030
F070
F070
79E0
3FC0
0F80
0F80
0600
0600
0600
0600
0600
ENDCHAR
STARTCHAR Thorn
ENCODING 222
SWIDTH 585 0
DWIDTH 14 0
BBX 12 18 1 1
BITMAP
C000
C000
C000
C000
FFC0
FFE0
C0F0
C030
C030
C030
C030
C0F0
FFE0
FFC0
C000
C000
C000
C000
ENDCHAR
STARTCHAR germandbls
ENCODING 223
SWIDTH 585 0
DWIDTH 14 0
BBX 10 19 1 1
BITMAP
3800
3800
F700
F700
C300
C300
C300
C200
C600
C600
C700
C700
C3C0
C1C0
C1C0
C0C0
C0C0
CFC0
CFC0
ENDCHAR
STARTCHAR agrave
ENCODING 224
SWIDTH 585 0
DWIDTH 14 0
BBX 13 17 1 1
BITMAP
1E00
0F00
0380
0000
0000
1FE0
1FF0
0018
0018
1F98
7FF8
F078
E018
F0F8
F078
1F98
1F98
ENDCHAR
STARTCHAR aacute
ENCODING 225
SWIDTH 585 0
DWIDTH 14 0
BBX 13 17 1 1
BITMAP
01E0
0780
0C00
0000
0000
1FE0
1FF0
0018
0018
1F98
7FF8
F078
E018
F0F8
F078
1F98
1F98
ENDCHAR
STARTCHAR acircumflex
ENCODING 226
SWIDTH 585 0
DWIDTH 14 0
BBX 13 17 1 1
BITMAP
0700
0700
15C0
1CE0
1CE0
1FE0
1FF0
0018
0018
1F98
7FF8
F078
E018
F0F8
F078
1F98
1F98
ENDCHAR
STARTCHAR atilde
ENCODING 227
SWIDTH 585 0
DWIDTH 14 0
BBX 12 17 1 1
BITMAP
0CC0
0CC0
3300
3300
0000
3FC0
3FE0
0030
0030
3F30
7FF0
F0F0
C030
F0F0
F0F0
3F30
3F30
ENDCHAR
STARTCHAR adieresis
ENCODING 228
SWIDTH 585 0
DWIDTH 14 0
BBX 12 17 1 1
BITMAP
1980
1980
0000
0000
0000
1F80
1FC0
0060
0060
1F60
7FE0
F0E0
E070
F0F0
F0F0
1F70
1F70
ENDCHAR
STARTCHAR aring
ENCODING 229
SWIDTH 585 0
DWIDTH 14 0
BBX 13 17 1 1
BITMAP
0300
0300
0C80
0C80
0300
0200
1FE0
1FF0
0018
1F98
7FF8
F078
E018
F0F8
F078
1F98
1F98
ENDCHAR
STARTCHAR ae
ENCODING 230
SWIDTH 585 0
DWIDTH 14 0
BBX 12 13 1 1
BITMAP
F9E0
FFF0
0630
0630
0630
7FF0
FFF0
C600
C600
C600
C600
FFE0
7DE0
ENDCHAR
STARTCHAR ccedilla
ENCODING 231
SWIDTH 585 0
DWIDTH 14 0
BBX 12 15 1 1
BITMAP
3FC0
7FE0
FCF0
F0F0
C030
C000
C030
F0F0
F0F0
7FE0
3FC0
0700
0E00
0E00
3C00
ENDCHAR
STARTCHAR egrave
ENCODING 232
SWIDTH 585 0
DWIDTH 14 0
BBX 12 17 1 1
BITMAP
3C00
0E00
0300
0000
0000
3FC0
7FE0
F0F0
F0F0
C070
FFF0
FFE0
C000
F0F0
F0F0
3FC0
3FC0
ENDCHAR
STARTCHAR eacute
ENCODING 233
SWIDTH 585 0
DWIDTH 14 0
BBX 12 17 1 1
BITMAP
0380
0700
0C00
0000
0000
3FC0
7FE0
F0F0
F0F0
C070
FFF0
FFE0
C000
F0F0
F0F0
3FC0
3FC0
ENDCHAR
STARTCHAR ecircumflex
ENCODING 234
SWIDTH 585 0
DWIDTH 14 0
BBX 12 17 1 1
BITMAP
0600
0600
3A80
3180
3180
3FC0
7FE0
F0F0
F0F0
C070
FFF0
FFE0
C000
F0F0
F0F0
3FC0
3FC0
ENDCHAR
STARTCHAR edieresis
ENCODING 235
SWIDTH 585 0
DWIDTH 14 0
BBX 12 17 1 1
BITMAP
3180
3180
0000
0000
0000
3F80
7FE0
F0F0
F0F0
C070
FFF0
FFE0
C000
F0F0
F0F0
3F80
3F80
ENDCHAR
STARTCHAR igrave
ENCODING 236
SWIDTH 585 0
DWIDTH 14 0
BBX 9 17 2 1
BITMAP
F000
7800
0C00
0000
0000
0000
7C00
7C00
0C00
0C00
0C00
0C00
0C00
0F00
0F00
0780
0300
ENDCHAR
STARTCHAR iacute
ENCODING 237
SWIDTH 585 0
DWIDTH 14 0
BBX 8 17 3 1
BITMAP
0F
1E
30
00
00
00
F8
F8
18
18
18
18
18
1E
1E
0F
06
ENDCHAR
STARTCHAR icircumflex
ENCODING 238
SWIDTH 585 0
DWIDTH 14 0
BBX 8 17 2 1
BITMAP
38
38
CA
C6
C6
00
7C
7C
0C
0C
0C
0C
0C
0E
0E
07
03
ENDCHAR
STARTCHAR idieresis
ENCODING 239
SWIDTH 585 0
DWIDTH 14 0
BBX 8 17 3 1
BITMAP
CC
CC
00
00
00
00
7C
7C
0C
0C
08
08
08
0C
0C
0F
03
ENDCHAR
STARTCHAR eth
ENCODING 240
SWIDTH 585 0
DWIDTH 14 0
BBX 12 18 1 1
BITMAP
0060
0060
0060
0FF0
0FF0
0060
3FE0
7FE0
F060
C060
C060
C060
C060
C060
F0E0
F0E0
7FC0
3F80
ENDCHAR
STARTCHAR ntilde
ENCODING 241
SWIDTH 585 0
DWIDTH 14 0
BBX 12 17 1 1
BITMAP
0CC0
0CC0
3300
3300
0000
CFC0
FFE0
F0F0
C030
C030
C030
C030
C030
C030
C030
C030
C030
ENDCHAR
STARTCHAR ograve
ENCODING 242
SWIDTH 585 0
DWIDTH 14 0
BBX 12 17 1 1
BITMAP
3C00
0E00
0300
0000
0000
3FC0
7FE0
F0F0
F0F0
C030
C030
C030
C030
F0F0
F0F0
7FE0
3FC0
ENDCHAR
STARTCHAR oacute
ENCODING 243
SWIDTH 585 0
DWIDTH 14 0
BBX 12 17 1 1
BITMAP
03C0
0700
0C00
0000
0000
3FC0
7FE0
F0F0
F0F0
C030
C030
C030
C030
F0F0
F0F0
7FE0
3FC0
ENDCHAR
STARTCHAR ocircumflex
ENCODING 244
SWIDTH 585 0
DWIDTH 14 0
BBX 12 17 1 1
BITMAP
0600
0600
3A80
39C0
39C0
3FC0
7FE0
F0F0
F0F0
C030
C030
C030
C030
F0F0
F0F0
7FE0
3FC0
ENDCHAR
STARTCHAR otilde
ENCODING 245
SWIDTH 585 0
DWIDTH 14 0
BBX 12 17 1 1
BITMAP
0CC0
0CC0
3300
3300
0000
3FC0
7FE0
F0F0
F0F0
C030
C030
C030
C030
F0F0
F0F0
7FE0
3FC0
ENDCHAR
STARTCHAR odieresis
ENCODING 246
SWIDTH 585 0
DWIDTH 14 0
BBX 12 17 1 1
BITMAP
3180
3180
0000
0000
0000
3F80
7FE0
F0F0
F0F0
C070
C070
C070
C070
F0F0
F0F0
7FE0
3F80
ENDCHAR
STARTCHAR oslash
ENCODING 248
SWIDTH 585 0
DWIDTH 14 0
BBX 12 13 1 1
BITMAP
3FB0
7FF0
E060
C1F0
C3F0
C3B0
CF30
DC30
FC30
F830
6070
FFE0
DFC0
ENDCHAR
STARTCHAR ugrave
ENCODING 249
SWIDTH 585 0
DWIDTH 14 0
BBX 12 17 1 1
BITMAP
3C00
1E00
0300
0000
0000
C030
C030
C030
C030
C030
C030
C030
C030
E070
E070
7FE0
3FC0
ENDCHAR
STARTCHAR uacute
ENCODING 250
SWIDTH 585 0
DWIDTH 14 0
BBX 12 17 1 1
BITMAP
03C0
0780
0C00
0000
0000
C030
C030
C030
C030
C030
C030
C030
C030
E070
E070
7FE0
3FC0
ENDCHAR
STARTCHAR ucircumflex
ENCODING 251
SWIDTH 585 0
DWIDTH 14 0
BBX 12 17 1 1
BITMAP
0600
0600
2A80
39C0
39C0
C030
C030
C030
C030
C030
C030
C030
C030
E070
E070
7FE0
3FC0
ENDCHAR
STARTCHAR udieresis
ENCODING 252
SWIDTH 585 0
DWIDTH 14 0
BBX 11 17 1 1
BITMAP
3180
3180
0000
0000
0000
C060
C060
C060
C060
C060
C060
C060
C060
E0E0
E0E0
7FC0
3F80
ENDCHAR
STARTCHAR yacute
ENCODING 253
SWIDTH 585 0
DWIDTH 15 0
BBX 13 17 1 1
BITMAP
03C0
0780
0C00
0000
0000
C038
C078
C1F8
E3F8
E3F8
7FB8
3F38
0038
0038
0078
3FF0
3FC0
ENDCHAR
STARTCHAR thorn
ENCODING 254
SWIDTH 585 0
DWIDTH 15 0
BBX 13 15 1 1
BITMAP
C000
C000
C7C0
FFE0
F870
C030
C030
C038
C038
F878
FFF0
C7C0
C000
C000
C000
ENDCHAR
STARTCHAR ydieresis
ENCODING 255
SWIDTH 585 0
DWIDTH 14 0
BBX 12 17 1 1
BITMAP
3180
3180
0000
0000
0000
C060
C0E0
C1E0
E3E0
E3E0
7F70
3E70
0070
0070
00F0
3FE0
3FC0
ENDCHAR
STARTCHAR semicolon.dup4
ENCODING 894
SWIDTH 146 0
DWIDTH 4 0
BBX 3 15 0 0
BITMAP
60
60
00
00
00
00
00
00
00
60
60
60
C0
C0
80
ENDCHAR
STARTCHAR quoteleft
ENCODING 8216
SWIDTH 585 0
DWIDTH 14 0
BBX 4 7 7 11
BITMAP
30
00
40
C0
F0
F0
F0
ENDCHAR
STARTCHAR quoteright
ENCODING 8217
SWIDTH 585 0
DWIDTH 14 0
BBX 4 7 3 11
BITMAP
F0
F0
F0
F0
30
20
C0
ENDCHAR
STARTCHAR quotedblleft
ENCODING 8220
SWIDTH 585 0
DWIDTH 14 0
BBX 9 8 3 10
BITMAP
3180
3180
4200
C600
F780
F780
F780
F780
ENDCHAR
STARTCHAR quotedblright
ENCODING 8221
SWIDTH 585 0
DWIDTH 14 0
BBX 10 8 2 10
BITMAP
F3C0
F3C0
F3C0
F3C0
30C0
2080
C300
C300
ENDCHAR
STARTCHAR bullet
ENCODING 8226
SWIDTH 585 0
DWIDTH 14 0
BBX 7 6 4 7
BITMAP
7C
FE
FE
FE
FE
7C
ENDCHAR
STARTCHAR ellipsis
ENCODING 8230
SWIDTH 585 0
DWIDTH 14 0
BBX 12 2 1 1
BITMAP
C630
C630
ENDCHAR
STARTCHAR guilsinglleft
ENCODING 8249
SWIDTH 585 0
DWIDTH 14 0
BBX 6 11 3 1
BITMAP
0C
18
30
30
60
C0
60
30
30
18
0C
ENDCHAR
STARTCHAR guilsinglright
ENCODING 8250
SWIDTH 585 0
DWIDTH 14 0
BBX 6 11 3 1
BITMAP
C0
E0
30
30
18
0C
18
30
30
C0
C0
ENDCHAR
STARTCHAR fraction
ENCODING 8260
SWIDTH 585 0
DWIDTH 14 0
BBX 12 17 1 1
BITMAP
0030
0030
0030
0030
0070
01E0
03C0
0780
0600
1E00
3C00
7800
E000
C000
C000
C000
C000
ENDCHAR
STARTCHAR franc
ENCODING 8355
SWIDTH 585 0
DWIDTH 14 0
BBX 11 17 2 1
BITMAP
7FE0
7FE0
6000
6000
6000
6000
6000
6000
7F80
7F80
6000
6000
F800
F800
6000
6000
6000
ENDCHAR
STARTCHAR lira
ENCODING 8356
SWIDTH 585 0
DWIDTH 14 0
BBX 11 19 2 1
BITMAP
1FC0
1FC0
38E0
38E0
3000
3000
3000
FF80
FF80
3000
3000
FF80
FF80
3000
3000
3000
6000
FFE0
FFE0
ENDCHAR
STARTCHAR peseta
ENCODING 8359
SWIDTH 585 0
DWIDTH 14 0
BBX 12 17 1 1
BITMAP
F000
F800
D800
C800
C800
C800
D800
DB00
DF30
DFF0
F3F0
C3C0
C3F0
C3F0
C330
C3F0
C3F0
ENDCHAR
STARTCHAR Euro
ENCODING 8364
SWIDTH 585 0
DWIDTH 14 0
BBX 11 19 2 1
BITMAP
0780
0F80
3C60
3C60
7000
6000
FE00
FE00
6000
6000
FE00
FE00
6000
6000
7800
3C60
3C60
0780
0F80
ENDCHAR
STARTCHAR trademark
ENCODING 8482
SWIDTH 585 0
DWIDTH 14 0
BBX 12 7 1 11
BITMAP
FF30
FF30
33F0
33F0
33F0
3330
3330
ENDCHAR
STARTCHAR arrowleft
ENCODING 8592
SWIDTH 585 0
DWIDTH 14 0
BBX 11 11 2 4
BITMAP
0C00
1800
1000
3000
6000
FFE0
FFE0
6000
3000
1800
0C00
ENDCHAR
STARTCHAR arrowup
ENCODING 8593
SWIDTH 585 0
DWIDTH 14 0
BBX 10 12 1 3
BITMAP
0E00
0C00
1F00
1F00
1F00
3300
3380
60C0
60C0
60C0
C0C0
C0C0
ENDCHAR
STARTCHAR arrowright
ENCODING 8594
SWIDTH 585 0
DWIDTH 14 0
BBX 11 11 1 4
BITMAP
0600
0300
0380
0180
00C0
FFE0
FFE0
00C0
0180
0300
0600
ENDCHAR
STARTCHAR arrowdown
ENCODING 8595
SWIDTH 585 0
DWIDTH 14 0
BBX 10 12 1 3
BITMAP
C0C0
C0C0
60C0
60C0
60C0
3300
3300
1F00
1F00
1F00
0C00
0C00
ENDCHAR
STARTCHAR arrowboth
ENCODING 8596
SWIDTH 585 0
DWIDTH 14 0
BBX 12 12 1 2
BITMAP
0300
0300
03C0
FFE0
FFF0
FFF0
FFF0
FFE0
03C0
0300
0300
0300
ENDCHAR
STARTCHAR fraction.dup5
ENCODING 8725
SWIDTH 585 0
DWIDTH 14 0
BBX 12 17 1 1
BITMAP
0030
0030
0030
0030
0070
01E0
03C0
0780
0600
1E00
3C00
7800
E000
C000
C000
C000
C000
ENDCHAR
STARTCHAR triagup
ENCODING 9650
SWIDTH 585 0
DWIDTH 14 0
BBX 13 14 1 2
BITMAP
0600
0600
0F80
0F80
0FC0
1FC0
1FC0
3FE0
3FE0
FFF8
FFF8
FFF8
FFF8
FFF8
ENDCHAR
STARTCHAR triagrt
ENCODING 9658
SWIDTH 585 0
DWIDTH 14 0
BBX 10 14 2 2
BITMAP
F000
F800
FC00
FE00
FE00
FF00
FFC0
FFC0
FF00
FE00
FC00
FC00
F800
F000
ENDCHAR
STARTCHAR triagdn
ENCODING 9660
SWIDTH 585 0
DWIDTH 14 0
BBX 13 15 1 2
BITMAP
FFF8
FFF8
FFF8
FFF8
FFF8
3FE0
3FE0
3FC0
1FC0
1FC0
0F80
0F80
0E00
0600
0600
ENDCHAR
STARTCHAR triaglf
ENCODING 9668
SWIDTH 585 0
DWIDTH 14 0
BBX 10 14 2 2
BITMAP
03C0
07C0
0FC0
1FC0
1FC0
3FC0
FFC0
FFC0
3FC0
1FC0
0FC0
0FC0
07C0
03C0
ENDCHAR
STARTCHAR .notdef
ENCODING -1
SWIDTH 585 0
DWIDTH 16 0
BBX 15 22 0 0
BITMAP
FFFE
FFFE
C006
E00E
D016
D016
C826
C446
C446
C286
C306
C106
C306
C486
C446
C846
D026
D016
E016
C00E
FFFE
FFFE
ENDCHAR
STARTCHAR nonmarkingreturn
ENCODING -1
SWIDTH 585 0
DWIDTH 14 0
BBX 1 1 0 0
BITMAP
00
ENDCHAR
ENDFONT
